<svg width="260" height="64" viewBox="0 0 260 64" fill="none" xmlns="http://www.w3.org/2000/svg">
<rect width="260" height="64" fill="#EDEEF0"/>
<path d="M25.724 43.132C24.338 43.132 23.084 42.846 21.962 42.274C20.84 41.68 19.927 40.536 19.223 38.842L18.464 36.994H9.686L6.98 43H5.264L14.999 21.22H16.484L23.876 38.842C24.712 40.888 25.856 41.988 27.308 42.142V42.967C26.912 43.077 26.384 43.132 25.724 43.132ZM10.379 35.509H17.837L14.207 26.896L10.379 35.509ZM35.3752 43.561C34.1432 43.561 32.9552 43.396 31.8112 43.066C30.6672 42.758 29.7322 42.307 29.0062 41.713C28.2802 41.097 27.9172 40.393 27.9172 39.601V35.74H28.8412C29.1712 37.984 29.8642 39.601 30.9202 40.591C31.9762 41.581 33.4502 42.076 35.3422 42.076C36.6182 42.076 37.6302 41.801 38.3782 41.251C39.1262 40.701 39.5002 39.909 39.5002 38.875C39.5002 37.995 39.2252 37.247 38.6752 36.631C38.1252 36.015 37.2672 35.344 36.1012 34.618L32.0422 32.176C30.5682 31.318 29.5122 30.427 28.8742 29.503C28.2582 28.579 27.9502 27.501 27.9502 26.269C27.9502 24.531 28.6102 23.156 29.9302 22.144C31.2722 21.132 33.0762 20.626 35.3422 20.626C36.5742 20.626 37.7622 20.791 38.9062 21.121C40.0502 21.429 40.9852 21.891 41.7112 22.507C42.4372 23.101 42.8002 23.794 42.8002 24.586V28.447H41.8762C41.5022 26.203 40.8092 24.586 39.7972 23.596C38.7852 22.606 37.4212 22.111 35.7052 22.111C34.5172 22.111 33.5712 22.397 32.8672 22.969C32.1852 23.541 31.8442 24.322 31.8442 25.312C31.8442 26.17 32.1082 26.885 32.6362 27.457C33.1862 28.007 34.0662 28.634 35.2762 29.338L39.3352 31.747C40.8752 32.649 41.9752 33.529 42.6352 34.387C43.3172 35.223 43.6582 36.235 43.6582 37.423C43.6582 39.337 42.9322 40.844 41.4802 41.944C40.0502 43.022 38.0152 43.561 35.3752 43.561ZM47.9993 25.51C47.9993 24.388 47.8453 23.563 47.5373 23.035C47.2293 22.485 46.6133 22.21 45.6893 22.21H45.3593V21.22H49.3193C50.1113 21.22 50.7163 21.352 51.1343 21.616C51.5523 21.88 51.8493 22.32 52.0253 22.936C52.2013 23.53 52.2893 24.388 52.2893 25.51V30.955H61.1993V21.22H65.4893V38.71C65.4893 39.832 65.6433 40.668 65.9513 41.218C66.2593 41.746 66.8753 42.01 67.7993 42.01H68.1293V43H64.1693C63.3773 43 62.7723 42.879 62.3543 42.637C61.9363 42.373 61.6393 41.944 61.4633 41.35C61.2873 40.734 61.1993 39.854 61.1993 38.71V32.44H52.2893V43H47.9993V25.51ZM87.0952 43.33C85.8852 43.33 84.7852 42.978 83.7952 42.274C82.8052 41.548 81.7712 40.305 80.6932 38.545L77.3932 33.034H76.0732V43H71.7502V25.51C71.7502 24.388 71.5962 23.563 71.2882 23.035C70.9802 22.485 70.3642 22.21 69.4402 22.21H69.1102V21.22H78.2182C80.5062 21.22 82.5632 21.638 84.3892 22.474C86.2152 23.31 87.1282 24.916 87.1282 27.292C87.1282 30.042 85.3462 31.868 81.7822 32.77L85.2472 38.545C86.5452 40.723 87.9092 41.933 89.3392 42.175V43C89.1632 43.088 88.8442 43.165 88.3822 43.231C87.9202 43.297 87.4912 43.33 87.0952 43.33ZM78.0532 31.714C79.2852 31.714 80.3302 31.351 81.1882 30.625C82.0682 29.877 82.5082 28.711 82.5082 27.127C82.5082 25.565 82.0792 24.41 81.2212 23.662C80.3632 22.914 79.3622 22.54 78.2182 22.54C77.5802 22.54 77.0852 22.584 76.7332 22.672L76.0732 22.771V31.714H78.0532ZM109.674 43.132C108.288 43.132 107.034 42.846 105.912 42.274C104.79 41.68 103.877 40.536 103.173 38.842L102.414 36.994H93.6362L90.9302 43H89.2142L98.9492 21.22H100.434L107.826 38.842C108.662 40.888 109.806 41.988 111.258 42.142V42.967C110.862 43.077 110.334 43.132 109.674 43.132ZM94.3292 35.509H101.787L98.1572 26.896L94.3292 35.509ZM113.451 25.51C113.451 24.388 113.297 23.563 112.989 23.035C112.681 22.485 112.065 22.21 111.141 22.21H110.811V21.22H124.638C126.508 21.22 127.443 22.1 127.443 23.86V26.665H126.453C126.453 25.279 126.101 24.278 125.397 23.662C124.715 23.024 123.692 22.705 122.328 22.705H117.741V31.12H125.001V32.605H117.741V43H113.451V25.51ZM157.079 43.132C155.693 43.132 154.439 42.846 153.317 42.274C152.195 41.68 151.282 40.536 150.578 38.842L149.819 36.994H141.041L138.335 43H136.619L146.354 21.22H147.839L155.231 38.842C156.067 40.888 157.211 41.988 158.663 42.142V42.967C158.267 43.077 157.739 43.132 157.079 43.132ZM141.734 35.509H149.192L145.562 26.896L141.734 35.509ZM160.857 25.51C160.857 24.388 160.703 23.563 160.395 23.035C160.087 22.485 159.471 22.21 158.547 22.21H158.217V21.22H162.177C162.969 21.22 163.574 21.352 163.992 21.616C164.41 21.88 164.707 22.32 164.883 22.936C165.059 23.53 165.147 24.388 165.147 25.51V30.955H174.057V21.22H178.347V38.71C178.347 39.832 178.501 40.668 178.809 41.218C179.117 41.746 179.733 42.01 180.657 42.01H180.987V43H177.027C176.235 43 175.63 42.879 175.212 42.637C174.794 42.373 174.497 41.944 174.321 41.35C174.145 40.734 174.057 39.854 174.057 38.71V32.44H165.147V43H160.857V25.51ZM209.424 44.485C207.048 44.485 205.332 43.935 204.276 42.835C203.242 41.713 202.725 39.898 202.725 37.39V25.708L195.498 43H194.409L185.565 25.048V43H183.915V21.22H187.941L195.927 37.423L202.692 21.22H207.015V37.39C207.015 39.458 207.191 40.976 207.543 41.944C207.895 42.912 208.522 43.484 209.424 43.66V44.485ZM213.225 25.51C213.225 24.388 213.071 23.563 212.763 23.035C212.455 22.485 211.839 22.21 210.915 22.21H210.585V21.22H225.138C227.008 21.22 227.943 22.1 227.943 23.86V26.665H226.953C226.953 25.301 226.601 24.3 225.897 23.662C225.215 23.024 224.192 22.705 222.828 22.705H217.515V30.955H226.095V32.44H217.515V41.515H223.158C224.412 41.515 225.457 41.24 226.293 40.69C227.129 40.118 227.822 39.139 228.372 37.753L229.263 38.083L228.306 40.69C228.02 41.482 227.679 42.065 227.283 42.439C226.887 42.813 226.271 43 225.435 43H213.225V25.51ZM233.012 25.51C233.012 24.388 232.858 23.563 232.55 23.035C232.242 22.485 231.626 22.21 230.702 22.21H230.372V21.22H239.348C243.792 21.22 247.169 22.166 249.479 24.058C251.811 25.928 252.977 28.568 252.977 31.978C252.977 34.156 252.482 36.081 251.492 37.753C250.524 39.403 249.072 40.69 247.136 41.614C245.222 42.538 242.912 43 240.206 43H233.012V25.51ZM240.107 41.68C241.647 41.68 243.011 41.295 244.199 40.525C245.409 39.755 246.344 38.644 247.004 37.192C247.686 35.74 248.027 34.046 248.027 32.11C248.027 30.196 247.686 28.524 247.004 27.094C246.344 25.642 245.409 24.52 244.199 23.728C242.989 22.936 241.603 22.54 240.041 22.54H239.777C239.051 22.54 238.468 22.584 238.028 22.672L237.302 22.771V41.449L238.028 41.581C238.49 41.647 239.073 41.68 239.777 41.68H240.107Z" fill="black"/>
</svg>
